<mxfile host="app.diagrams.net" agent="Mozilla/5.0 (X11; Linux x86_64) AppleWebKit/537.36 (KHTML, like Gecko) Chrome/128.0.0.0 Safari/537.36" version="24.7.16">
  <diagram id="C5RBs43oDa-KdzZeNtuy" name="Page-1">
    <mxGraphModel dx="934" dy="527" grid="1" gridSize="10" guides="1" tooltips="1" connect="1" arrows="1" fold="1" page="1" pageScale="1" pageWidth="827" pageHeight="1169" math="0" shadow="0">
      <root>
        <mxCell id="WIyWlLk6GJQsqaUBKTNV-0" />
        <mxCell id="WIyWlLk6GJQsqaUBKTNV-1" parent="WIyWlLk6GJQsqaUBKTNV-0" />
        <mxCell id="VTuREDA4w0NxpL2Bg81r-7" style="edgeStyle=orthogonalEdgeStyle;rounded=0;orthogonalLoop=1;jettySize=auto;html=1;entryX=0.5;entryY=0;entryDx=0;entryDy=0;" edge="1" parent="WIyWlLk6GJQsqaUBKTNV-1" source="VTuREDA4w0NxpL2Bg81r-0" target="VTuREDA4w0NxpL2Bg81r-1">
          <mxGeometry relative="1" as="geometry" />
        </mxCell>
        <mxCell id="VTuREDA4w0NxpL2Bg81r-0" value="Mulai" style="strokeWidth=2;html=1;shape=mxgraph.flowchart.terminator;whiteSpace=wrap;" vertex="1" parent="WIyWlLk6GJQsqaUBKTNV-1">
          <mxGeometry x="190" y="130" width="100" height="60" as="geometry" />
        </mxCell>
        <mxCell id="VTuREDA4w0NxpL2Bg81r-8" style="edgeStyle=orthogonalEdgeStyle;rounded=0;orthogonalLoop=1;jettySize=auto;html=1;entryX=0.5;entryY=0;entryDx=0;entryDy=0;" edge="1" parent="WIyWlLk6GJQsqaUBKTNV-1" source="VTuREDA4w0NxpL2Bg81r-1" target="VTuREDA4w0NxpL2Bg81r-3">
          <mxGeometry relative="1" as="geometry" />
        </mxCell>
        <mxCell id="VTuREDA4w0NxpL2Bg81r-1" value="Persiapan &lt;br&gt;Alat dan Bahan" style="rounded=0;whiteSpace=wrap;html=1;" vertex="1" parent="WIyWlLk6GJQsqaUBKTNV-1">
          <mxGeometry x="180" y="220" width="120" height="60" as="geometry" />
        </mxCell>
        <mxCell id="VTuREDA4w0NxpL2Bg81r-9" style="edgeStyle=orthogonalEdgeStyle;rounded=0;orthogonalLoop=1;jettySize=auto;html=1;entryX=0.5;entryY=0;entryDx=0;entryDy=0;" edge="1" parent="WIyWlLk6GJQsqaUBKTNV-1" source="VTuREDA4w0NxpL2Bg81r-3" target="VTuREDA4w0NxpL2Bg81r-4">
          <mxGeometry relative="1" as="geometry" />
        </mxCell>
        <mxCell id="VTuREDA4w0NxpL2Bg81r-3" value="Hubungkan &lt;br&gt;WEMOS ESP8266 &lt;br&gt;ke PC" style="rounded=0;whiteSpace=wrap;html=1;" vertex="1" parent="WIyWlLk6GJQsqaUBKTNV-1">
          <mxGeometry x="180" y="310" width="120" height="60" as="geometry" />
        </mxCell>
        <mxCell id="VTuREDA4w0NxpL2Bg81r-10" style="edgeStyle=orthogonalEdgeStyle;rounded=0;orthogonalLoop=1;jettySize=auto;html=1;entryX=0.5;entryY=0;entryDx=0;entryDy=0;" edge="1" parent="WIyWlLk6GJQsqaUBKTNV-1" source="VTuREDA4w0NxpL2Bg81r-4" target="VTuREDA4w0NxpL2Bg81r-5">
          <mxGeometry relative="1" as="geometry" />
        </mxCell>
        <mxCell id="VTuREDA4w0NxpL2Bg81r-4" value="Buka IDE Arduino" style="rounded=0;whiteSpace=wrap;html=1;" vertex="1" parent="WIyWlLk6GJQsqaUBKTNV-1">
          <mxGeometry x="180" y="400" width="120" height="60" as="geometry" />
        </mxCell>
        <mxCell id="VTuREDA4w0NxpL2Bg81r-11" style="edgeStyle=orthogonalEdgeStyle;rounded=0;orthogonalLoop=1;jettySize=auto;html=1;entryX=0.5;entryY=0;entryDx=0;entryDy=0;" edge="1" parent="WIyWlLk6GJQsqaUBKTNV-1" source="VTuREDA4w0NxpL2Bg81r-5" target="VTuREDA4w0NxpL2Bg81r-6">
          <mxGeometry relative="1" as="geometry" />
        </mxCell>
        <mxCell id="VTuREDA4w0NxpL2Bg81r-5" value="Inisialisasi:&lt;div&gt;- Port USB &amp;amp; Board&lt;/div&gt;&lt;div&gt;- Include Library Tegangan dan Arus&lt;/div&gt;" style="shape=hexagon;perimeter=hexagonPerimeter2;whiteSpace=wrap;html=1;fixedSize=1;" vertex="1" parent="WIyWlLk6GJQsqaUBKTNV-1">
          <mxGeometry x="170" y="490" width="140" height="80" as="geometry" />
        </mxCell>
        <mxCell id="VTuREDA4w0NxpL2Bg81r-6" value="setup()" style="ellipse;whiteSpace=wrap;html=1;aspect=fixed;" vertex="1" parent="WIyWlLk6GJQsqaUBKTNV-1">
          <mxGeometry x="200" y="600" width="80" height="80" as="geometry" />
        </mxCell>
        <mxCell id="VTuREDA4w0NxpL2Bg81r-14" style="edgeStyle=orthogonalEdgeStyle;rounded=0;orthogonalLoop=1;jettySize=auto;html=1;entryX=0.5;entryY=0;entryDx=0;entryDy=0;" edge="1" parent="WIyWlLk6GJQsqaUBKTNV-1" source="VTuREDA4w0NxpL2Bg81r-12" target="VTuREDA4w0NxpL2Bg81r-13">
          <mxGeometry relative="1" as="geometry" />
        </mxCell>
        <mxCell id="VTuREDA4w0NxpL2Bg81r-12" value="setup()" style="ellipse;whiteSpace=wrap;html=1;aspect=fixed;" vertex="1" parent="WIyWlLk6GJQsqaUBKTNV-1">
          <mxGeometry x="350" y="120" width="80" height="80" as="geometry" />
        </mxCell>
        <mxCell id="VTuREDA4w0NxpL2Bg81r-16" style="edgeStyle=orthogonalEdgeStyle;rounded=0;orthogonalLoop=1;jettySize=auto;html=1;entryX=0.5;entryY=0;entryDx=0;entryDy=0;" edge="1" parent="WIyWlLk6GJQsqaUBKTNV-1" source="VTuREDA4w0NxpL2Bg81r-13" target="VTuREDA4w0NxpL2Bg81r-15">
          <mxGeometry relative="1" as="geometry" />
        </mxCell>
        <mxCell id="VTuREDA4w0NxpL2Bg81r-13" value="- Deklarasi Variabel&lt;div&gt;- Setup Pin Sensor Tegangan dan Arus, Relay&lt;/div&gt;" style="rounded=0;whiteSpace=wrap;html=1;" vertex="1" parent="WIyWlLk6GJQsqaUBKTNV-1">
          <mxGeometry x="330" y="230" width="120" height="60" as="geometry" />
        </mxCell>
        <mxCell id="VTuREDA4w0NxpL2Bg81r-15" value="loop()" style="ellipse;whiteSpace=wrap;html=1;aspect=fixed;" vertex="1" parent="WIyWlLk6GJQsqaUBKTNV-1">
          <mxGeometry x="350" y="320" width="80" height="80" as="geometry" />
        </mxCell>
        <mxCell id="VTuREDA4w0NxpL2Bg81r-19" style="edgeStyle=orthogonalEdgeStyle;rounded=0;orthogonalLoop=1;jettySize=auto;html=1;entryX=0.5;entryY=0;entryDx=0;entryDy=0;" edge="1" parent="WIyWlLk6GJQsqaUBKTNV-1" source="VTuREDA4w0NxpL2Bg81r-17" target="VTuREDA4w0NxpL2Bg81r-18">
          <mxGeometry relative="1" as="geometry" />
        </mxCell>
        <mxCell id="VTuREDA4w0NxpL2Bg81r-17" value="loop()" style="ellipse;whiteSpace=wrap;html=1;aspect=fixed;" vertex="1" parent="WIyWlLk6GJQsqaUBKTNV-1">
          <mxGeometry x="490" y="120" width="80" height="80" as="geometry" />
        </mxCell>
        <mxCell id="VTuREDA4w0NxpL2Bg81r-23" style="edgeStyle=orthogonalEdgeStyle;rounded=0;orthogonalLoop=1;jettySize=auto;html=1;entryX=0.5;entryY=0;entryDx=0;entryDy=0;" edge="1" parent="WIyWlLk6GJQsqaUBKTNV-1" source="VTuREDA4w0NxpL2Bg81r-18" target="VTuREDA4w0NxpL2Bg81r-21">
          <mxGeometry relative="1" as="geometry" />
        </mxCell>
        <mxCell id="VTuREDA4w0NxpL2Bg81r-25" style="edgeStyle=orthogonalEdgeStyle;rounded=0;orthogonalLoop=1;jettySize=auto;html=1;entryX=0;entryY=0.5;entryDx=0;entryDy=0;" edge="1" parent="WIyWlLk6GJQsqaUBKTNV-1" source="VTuREDA4w0NxpL2Bg81r-18" target="VTuREDA4w0NxpL2Bg81r-24">
          <mxGeometry relative="1" as="geometry" />
        </mxCell>
        <mxCell id="VTuREDA4w0NxpL2Bg81r-18" value="volt =&amp;gt;&amp;nbsp;&lt;span style=&quot;background-color: initial;&quot;&gt;12.6&lt;br&gt;// maks&lt;/span&gt;" style="rhombus;whiteSpace=wrap;html=1;" vertex="1" parent="WIyWlLk6GJQsqaUBKTNV-1">
          <mxGeometry x="485" y="230" width="90" height="90" as="geometry" />
        </mxCell>
        <mxCell id="VTuREDA4w0NxpL2Bg81r-21" value="Relay OFF" style="rounded=0;whiteSpace=wrap;html=1;" vertex="1" parent="WIyWlLk6GJQsqaUBKTNV-1">
          <mxGeometry x="470" y="350" width="120" height="60" as="geometry" />
        </mxCell>
        <mxCell id="VTuREDA4w0NxpL2Bg81r-24" value="Relay ON" style="rounded=0;whiteSpace=wrap;html=1;" vertex="1" parent="WIyWlLk6GJQsqaUBKTNV-1">
          <mxGeometry x="630" y="245" width="120" height="60" as="geometry" />
        </mxCell>
        <mxCell id="VTuREDA4w0NxpL2Bg81r-26" value="Ya" style="text;html=1;align=center;verticalAlign=middle;whiteSpace=wrap;rounded=0;" vertex="1" parent="WIyWlLk6GJQsqaUBKTNV-1">
          <mxGeometry x="520" y="320" width="60" height="30" as="geometry" />
        </mxCell>
        <mxCell id="VTuREDA4w0NxpL2Bg81r-27" value="Tidak" style="text;html=1;align=center;verticalAlign=middle;whiteSpace=wrap;rounded=0;" vertex="1" parent="WIyWlLk6GJQsqaUBKTNV-1">
          <mxGeometry x="570" y="245" width="60" height="30" as="geometry" />
        </mxCell>
      </root>
    </mxGraphModel>
  </diagram>
</mxfile>
